<?xml version="1.0" standalone="no"?>
<!DOCTYPE svg PUBLIC "-//W3C//DTD SVG 20010904//EN"
 "http://www.w3.org/TR/2001/REC-SVG-20010904/DTD/svg10.dtd">
<svg version="1.0" xmlns="http://www.w3.org/2000/svg"
 width="423.000000pt" height="423.000000pt" viewBox="0 0 423.000000 423.000000"
 preserveAspectRatio="xMidYMid meet">
<metadata>
Created by potrace 1.14, written by Peter Selinger 2001-2017
</metadata>
<g transform="translate(0.000000,423.000000) scale(0.100000,-0.100000)"
fill="#000000" stroke="none">
<path d="M1500 2794 c-142 -39 -238 -140 -259 -274 -31 -194 97 -378 276 -396
58 -6 62 -9 98 -55 20 -27 64 -67 97 -89 77 -51 133 -67 218 -61 22 2 20 4
-15 18 -77 31 -142 90 -185 165 l-20 36 44 23 c62 30 131 102 164 168 23 49
27 68 27 146 0 80 -4 97 -30 148 -36 72 -109 139 -177 165 -63 24 -164 26
-238 6z m157 -30 c67 -32 104 -79 144 -183 20 -54 18 -215 -5 -283 -58 -179
-258 -207 -361 -50 -84 130 -90 358 -12 465 47 63 157 87 234 51z"/>
<path d="M2406 2429 c-23 -34 -169 -242 -223 -317 -17 -24 -83 -119 -291 -417
-68 -97 -121 -179 -118 -182 3 -4 7 -4 9 -2 46 62 119 166 172 244 38 55 72
102 75 105 4 3 30 39 58 80 51 75 166 239 220 315 66 92 142 205 142 210 0 16
-21 0 -44 -36z"/>
<path d="M2500 2050 l-54 -5 -47 -75 -47 -75 -4 -237 c-2 -151 -7 -241 -14
-248 -6 -6 -21 -12 -34 -15 -56 -11 -23 -15 111 -14 114 1 137 3 109 11 -19 5
-38 15 -42 21 -4 7 -8 74 -8 150 l0 137 43 0 c37 0 46 -4 58 -27 28 -56 150
-230 182 -261 l34 -33 104 3 c99 3 102 4 64 15 -58 18 -136 96 -237 239 -65
93 -65 89 -14 138 30 29 49 58 56 87 37 137 -60 207 -260 189z m103 -41 c33
-26 47 -78 42 -153 -8 -95 -40 -126 -131 -126 l-44 0 0 134 c0 128 1 136 22
150 31 22 80 20 111 -5z"/>
</g>
</svg>
